# xmcd
#
# Track frame offsets:
#	183
#	18240
#	29895
#	46945
#	61653
#	74515
#	91058
#	104853
#	117090
#	130653
#	147750
#	167265
#	181920
#	196995
#
# Disc length: 2778 seconds
#
# Revision: 1
# Processed by: cddbd v1.5.1PL0 Copyright (c) Steve Scherf et al.
# Submitted via: audiograbber 1.83.01
#
DISCID=ba0ad80e
DTITLE=Amazing Platters - Perfect World
DYEAR=1900
DGENRE=
TTITLE0=Perfect World
TTITLE1=Smoke Gets In Your Eyes
TTITLE2=Everybody's Got to Have A Home
TTITLE3=Talk to me baby
TTITLE4=The long way home
TTITLE5=Only you
TTITLE6=True love
TTITLE7=You've got the magic touch
TTITLE8=Lover should be friends
TTITLE9=Don't forget juliet
TTITLE10=Every since you came into my life
TTITLE11=Enchanted
TTITLE12=It matters not
TTITLE13=My dream
EXTD=
EXTT0=
EXTT1=
EXTT2=
EXTT3=
EXTT4=
EXTT5=
EXTT6=
EXTT7=
EXTT8=
EXTT9=
EXTT10=
EXTT11=
EXTT12=
EXTT13=
PLAYORDER=
